<svg id="cog-icon" width="100%" height="100%" viewBox="0 0 28 28" xmlns="http://www.w3.org/2000/svg">
    <path fill-rule="evenodd" clip-rule="evenodd" d="M12.5223 2.79963H15.4725C15.5702 2.79963 15.664 2.83895 15.7331 2.90896C15.8022 2.97896 15.841 3.07391 15.841 3.17291C15.841 6.54739 19.449 8.65831 22.3346 6.9692C22.4189 6.92097 22.5184 6.90822 22.6119 6.93371C22.7053 6.9592 22.7851 7.02089 22.834 7.10545L24.3118 9.69604C24.36 9.78153 24.3729 9.88284 24.3478 9.97792C24.3226 10.073 24.2613 10.1542 24.1773 10.2037C21.2917 11.8909 21.2917 16.1091 24.1773 17.7982C24.2608 17.8477 24.3217 17.9285 24.3469 18.0231C24.372 18.1178 24.3595 18.2186 24.3118 18.304L22.834 20.8945C22.7851 20.9791 22.7053 21.0408 22.6119 21.0663C22.5184 21.0918 22.4189 21.079 22.3346 21.0308C19.449 19.3417 15.841 21.4507 15.841 24.8234C15.841 24.922 15.8024 25.0167 15.7337 25.0866C15.665 25.1566 15.5717 25.1961 15.4743 25.1966H12.5242C12.4264 25.1966 12.3327 25.1573 12.2636 25.0873C12.1945 25.0173 12.1556 24.9224 12.1556 24.8234C12.1556 21.4489 8.54767 19.3398 5.66202 21.0271C5.57762 21.0759 5.4776 21.089 5.38373 21.0634C5.28985 21.0379 5.20974 20.9759 5.16081 20.8908L3.68666 18.3002C3.63888 18.2151 3.62602 18.1144 3.65083 18.0198C3.67565 17.9252 3.73616 17.8443 3.81934 17.7944C6.70498 16.1053 6.70498 11.8872 3.81934 10.1981C3.73634 10.1486 3.67579 10.0681 3.65065 9.97392C3.62551 9.87973 3.63777 9.77931 3.68482 9.69417L5.16081 7.10172C5.21004 7.01697 5.2903 6.95532 5.38414 6.93016C5.47799 6.905 5.57784 6.91836 5.66202 6.96734C8.54767 8.65645 12.1556 6.54553 12.1556 3.17104C12.1556 2.96574 12.3196 2.79963 12.5223 2.79963ZM9.39162 3.17291C9.39162 1.41848 10.7921 0 12.5223 0H15.4725C17.2046 0 18.605 1.41848 18.605 3.17291C18.6056 3.45094 18.6783 3.72394 18.8158 3.96456C18.9533 4.20518 19.1508 4.40497 19.3886 4.54391C19.6264 4.68285 19.896 4.75605 20.1705 4.7562C20.445 4.75634 20.7147 4.68342 20.9526 4.54473C21.6717 4.12526 22.5257 4.01192 23.3272 4.22957C24.1287 4.44722 24.8122 4.97808 25.2276 5.70564L26.7055 8.29623C27.5697 9.81363 27.0556 11.751 25.5593 12.6263C25.3213 12.7656 25.1237 12.9658 24.9863 13.207C24.8489 13.4481 24.7766 13.7216 24.7766 14C24.7766 14.2784 24.8489 14.5519 24.9863 14.793C25.1237 15.0342 25.3213 15.2344 25.5593 15.3737C26.2776 15.7945 26.8018 16.4868 27.0166 17.2986C27.2315 18.1104 27.1196 18.9754 26.7055 19.7038L25.2276 22.2944C24.8122 23.0219 24.1287 23.5528 23.3272 23.7704C22.5257 23.9881 21.6717 23.8747 20.9526 23.4553C20.7147 23.3166 20.445 23.2437 20.1705 23.2438C19.896 23.2439 19.6264 23.3172 19.3886 23.4561C19.1508 23.595 18.9533 23.7948 18.8158 24.0354C18.6783 24.2761 18.6056 24.5491 18.605 24.8271C18.605 26.5797 17.2046 28 15.4743 28H12.5242C11.6937 27.9995 10.8974 27.665 10.3103 27.07C9.72324 26.475 9.39346 25.6683 9.39346 24.8271C9.39291 24.5491 9.32023 24.2761 9.18271 24.0354C9.04519 23.7948 8.84765 23.595 8.60988 23.4561C8.37212 23.3172 8.10248 23.2439 7.82799 23.2438C7.5535 23.2437 7.28378 23.3166 7.04588 23.4553C6.32681 23.8747 5.4728 23.9881 4.6713 23.7704C3.8698 23.5528 3.18631 23.0219 2.77085 22.2944L1.29302 19.7038C0.878885 18.9754 0.76698 18.1104 0.981864 17.2986C1.19675 16.4868 1.72086 15.7945 2.43917 15.3737C2.67673 15.2343 2.87395 15.0341 3.01106 14.7932C3.14816 14.5522 3.22033 14.279 3.22033 14.0009C3.22033 13.7228 3.14816 13.4496 3.01106 13.2087C2.87395 12.9678 2.67673 12.7676 2.43917 12.6282C1.72086 12.2074 1.19675 11.5151 0.981864 10.7033C0.76698 9.89144 0.878885 9.02643 1.29302 8.29809L2.76901 5.70564C3.18447 4.97808 3.86796 4.44722 4.66946 4.22957C5.47095 4.01192 6.32496 4.12526 7.04403 4.54473C7.28194 4.68342 7.55165 4.75634 7.82615 4.7562C8.10064 4.75605 8.37028 4.68285 8.60804 4.54391C8.84581 4.40497 9.04335 4.20518 9.18087 3.96456C9.31839 3.72394 9.39107 3.45094 9.39162 3.17291ZM16.7624 13.9981C16.7624 14.7406 16.4711 15.4527 15.9528 15.9778C15.4344 16.5028 14.7314 16.7978 13.9983 16.7978C13.2653 16.7978 12.5622 16.5028 12.0439 15.9778C11.5255 15.4527 11.2343 14.7406 11.2343 13.9981C11.2343 13.2556 11.5255 12.5435 12.0439 12.0185C12.5622 11.4935 13.2653 11.1985 13.9983 11.1985C14.7314 11.1985 15.4344 11.4935 15.9528 12.0185C16.4711 12.5435 16.7624 13.2556 16.7624 13.9981ZM19.5264 13.9981C19.5264 15.4831 18.944 16.9073 17.9073 17.9574C16.8705 19.0075 15.4645 19.5974 13.9983 19.5974C12.5322 19.5974 11.1261 19.0075 10.0894 17.9574C9.05269 16.9073 8.47027 15.4831 8.47027 13.9981C8.47027 12.5131 9.05269 11.0889 10.0894 10.0389C11.1261 8.9888 12.5322 8.39888 13.9983 8.39888C15.4645 8.39888 16.8705 8.9888 17.9073 10.0389C18.944 11.0889 19.5264 12.5131 19.5264 13.9981Z"/>
</svg>