<svg id="dislike-icon" viewBox="0 0 18 20" fill="none" xmlns="http://www.w3.org/2000/svg">
    <path d="M17.0006 8.00751L13.0003 8.00751L13.0003 1.00094C13.0003 0.735473 12.8949 0.48088 12.7074 0.293169C12.5198 0.105455 12.2655 -5.51461e-07 12.0002 -5.76968e-07L5.99977 -1.154e-06C5.73453 -1.17951e-06 5.48016 0.105454 5.29261 0.293168C5.10505 0.480879 4.99969 0.735472 4.99969 1.00094L4.99969 8.00751L0.999375 8.00751C0.811095 8.00783 0.626719 8.06128 0.467422 8.16174C0.308124 8.2622 0.18036 8.40558 0.0987997 8.57542C0.0172395 8.74527 -0.0148097 8.93469 0.00632945 9.12194C0.0274705 9.30919 0.100943 9.48668 0.218314 9.63403L8.21894 19.6434C8.59997 20.1189 9.40003 20.1189 9.78106 19.6434L17.7817 9.63403C17.8991 9.48668 17.9725 9.3092 17.9937 9.12194C18.0148 8.93469 17.9828 8.74527 17.9012 8.57542C17.8196 8.40558 17.6919 8.2622 17.5326 8.16174C17.3733 8.06129 17.1889 8.00783 17.0006 8.00751Z" fill="#0E111B"/>
</svg>
