<svg id="flame-icon" viewBox="0 0 21 24" xmlns="http://www.w3.org/2000/svg">
    <path d="M5.66493 24C0.747709 21.2287 -0.546891 18.6056 0.193269 15.023C0.739689 12.3775 2.52891 10.2252 2.70047 7.5849C3.46477 8.97578 3.78413 9.97872 3.86953 11.4322C6.30039 8.4539 7.90675 4.33092 8.00187 0C8.00187 0 14.3334 3.7202 14.7488 9.3396C15.2939 8.18134 15.5683 6.34176 15.0232 5.14952C16.6583 6.34182 26.2291 16.9263 13.7268 24C16.0774 19.4232 14.3332 13.2478 10.2521 10.3956C10.5246 11.622 10.0468 16.1961 8.24123 18.2059C8.74151 14.8476 7.76523 13.4276 7.76523 13.4276C7.76523 13.4276 7.43015 15.3087 6.13007 17.2089C4.94287 18.9441 4.12027 20.7858 5.66493 24Z" fill="#0E111B"/>
</svg>
