<svg width="25" height="18" id="folder-icon" viewBox="0 0 25 18" xmlns="http://www.w3.org/2000/svg">
    <path d="M2.24128 17.9302C1.62493 17.9302 1.09729 17.7108 0.658376 17.2719C0.219459 16.8329 0 16.3053 0 15.689V2.24128C0 1.62493 0.219459 1.09729 0.658376 0.658376C1.09729 0.219459 1.62493 0 2.24128 0H8.96512L11.2064 2.24128H20.1715C20.7879 2.24128 21.3155 2.46074 21.7544 2.89966C22.1933 3.33857 22.4128 3.86621 22.4128 4.48256H10.2819L8.04059 2.24128H2.24128V15.689L4.93081 6.72384H24.0938L21.2081 16.3333C21.0587 16.8189 20.7832 17.2065 20.3816 17.496C19.9801 17.7855 19.5365 17.9302 19.0509 17.9302H2.24128ZM4.59462 15.689H19.0509L21.068 8.96512H6.61177L4.59462 15.689Z" fill="#0E111B"/>
</svg>
