<svg id="like-icon" viewBox="0 0 18 20" fill="none" xmlns="http://www.w3.org/2000/svg">
    <path d="M0.999298 11.9915H4.9993V18.9974C4.9993 19.2629 5.10466 19.5175 5.29219 19.7052C5.47973 19.8929 5.73408 19.9983 5.9993 19.9983H11.9993C12.2645 19.9983 12.5189 19.8929 12.7064 19.7052C12.8939 19.5175 12.9993 19.2629 12.9993 18.9974V11.9915H16.9993C17.1876 11.9911 17.3719 11.9377 17.5312 11.8372C17.6905 11.7368 17.8182 11.5934 17.8998 11.4236C17.9814 11.2538 18.0134 11.0644 17.9923 10.8771C17.9711 10.6899 17.8977 10.5124 17.7803 10.3651L9.7803 0.356554C9.3993 -0.118851 8.5993 -0.118851 8.2183 0.356554L0.218298 10.3651C0.100937 10.5124 0.027469 10.6899 0.00633031 10.8771C-0.0148084 11.0644 0.0172391 11.2538 0.0987929 11.4236C0.180347 11.5934 0.3081 11.7368 0.467386 11.8372C0.626672 11.9377 0.811032 11.9911 0.999298 11.9915Z" fill="#0E111B"/>
</svg>
