<svg id="magnification-list-icon" viewBox="0 0 27 24" xmlns="http://www.w3.org/2000/svg">
    <path d="M1.5 0C1.10218 0 0.720644 0.158036 0.43934 0.43934C0.158035 0.720645 0 1.10218 0 1.5C0 1.89782 0.158035 2.27936 0.43934 2.56066C0.720644 2.84196 1.10218 3 1.5 3H25.5C25.8978 3 26.2794 2.84196 26.5607 2.56066C26.842 2.27936 27 1.89782 27 1.5C27 1.10218 26.842 0.720645 26.5607 0.43934C26.2794 0.158036 25.8978 0 25.5 0H1.5ZM0 12C0 11.6022 0.158035 11.2206 0.43934 10.9393C0.720644 10.658 1.10218 10.5 1.5 10.5H6C6.39782 10.5 6.77936 10.658 7.06066 10.9393C7.34196 11.2206 7.5 11.6022 7.5 12C7.5 12.3978 7.34196 12.7794 7.06066 13.0607C6.77936 13.342 6.39782 13.5 6 13.5H1.5C1.10218 13.5 0.720644 13.342 0.43934 13.0607C0.158035 12.7794 0 12.3978 0 12ZM0 22.5C0 22.1022 0.158035 21.7206 0.43934 21.4393C0.720644 21.158 1.10218 21 1.5 21H7.5C7.89782 21 8.27936 21.158 8.56066 21.4393C8.84196 21.7206 9 22.1022 9 22.5C9 22.8978 8.84196 23.2794 8.56066 23.5607C8.27936 23.842 7.89782 24 7.5 24H1.5C1.10218 24 0.720644 23.842 0.43934 23.5607C0.158035 23.2794 0 22.8978 0 22.5ZM10.5 15C10.5003 13.8306 10.774 12.6775 11.2993 11.6327C11.8246 10.588 12.5869 9.68053 13.5254 8.98286C14.4638 8.28519 15.5524 7.81662 16.7042 7.61459C17.856 7.41255 19.0391 7.48265 20.159 7.81927C21.2789 8.1559 22.3045 8.74972 23.154 9.55333C24.0036 10.3569 24.6534 11.3481 25.0516 12.4475C25.4499 13.547 25.5855 14.7244 25.4477 15.8856C25.3099 17.0468 24.9025 18.1598 24.258 19.1355L26.5605 21.4395C26.8337 21.7224 26.9849 22.1013 26.9815 22.4946C26.9781 22.8879 26.8203 23.2641 26.5422 23.5422C26.2641 23.8203 25.8879 23.9781 25.4946 23.9815C25.1013 23.9849 24.7224 23.8337 24.4395 23.5605L22.1355 21.258C21.005 22.0052 19.6933 22.4321 18.3396 22.4935C16.9859 22.5549 15.6409 22.2483 14.4475 21.6064C13.254 20.9646 12.2568 20.0114 11.5618 18.8481C10.8667 17.6849 10.4998 16.3551 10.5 15ZM18 10.5C17.4091 10.5 16.8239 10.6164 16.2779 10.8425C15.732 11.0687 15.2359 11.4002 14.818 11.818C14.4002 12.2359 14.0687 12.732 13.8425 13.2779C13.6164 13.8239 13.5 14.4091 13.5 15C13.5 15.5909 13.6164 16.1761 13.8425 16.7221C14.0687 17.268 14.4002 17.7641 14.818 18.182C15.2359 18.5998 15.732 18.9313 16.2779 19.1575C16.8239 19.3836 17.4091 19.5 18 19.5C19.1935 19.5 20.3381 19.0259 21.182 18.182C22.0259 17.3381 22.5 16.1935 22.5 15C22.5 13.8065 22.0259 12.6619 21.182 11.818C20.3381 10.9741 19.1935 10.5 18 10.5Z" fill="#FF4500" fill-opacity="0.96"/>
</svg>
