<svg id="reddit-icon" viewBox="0 0 24 24" fill="none" xmlns="http://www.w3.org/2000/svg">
    <path d="M12 24C18.6274 24 24 18.6274 24 12C24 5.37258 18.6274 0 12 0C5.37258 0 0 5.37258 0 12C0 18.6274 5.37258 24 12 24Z" fill="#FF4500"/>
    <path d="M19.9827 12.1144C19.9827 11.1416 19.1961 10.3691 18.2374 10.3691C17.4588 10.368 16.5678 10.5123 15.8614 10.1849C15.4077 9.97458 14.9175 9.79956 14.3987 9.66564C13.3465 9.39401 12.551 8.39568 12.7781 7.33298L12.8304 7.08857C13.0037 6.27734 13.8021 5.76041 14.6132 5.93418C15.2816 6.07737 15.7293 6.77072 16.2961 7.15273C16.4946 7.28653 16.7342 7.36483 16.9928 7.36483C17.6795 7.36483 18.2374 6.80702 18.2374 6.12002C18.2374 5.43339 17.6796 4.87549 16.9928 4.87549C16.1772 4.87549 15.3159 5.45771 14.518 5.28868L12.9728 4.96136C12.887 4.94693 12.8011 4.96136 12.7438 5.0043C12.6723 5.04724 12.6294 5.11868 12.6153 5.20455L12.2379 6.98135C11.9386 8.39065 10.6924 9.35461 9.30971 9.7596C8.89782 9.88024 8.50574 10.0274 8.13783 10.1979C7.4318 10.5253 6.54068 10.3823 5.76243 10.3835C4.78959 10.3835 4.01709 11.1701 4.01709 12.1288C4.01709 12.6508 4.24565 13.1118 4.6028 13.4286C4.83732 13.6366 5.0032 13.9327 5.00428 14.2462C5.00428 16.9355 8.1374 19.1245 12 19.1245C15.8627 19.1245 18.9958 16.9499 18.9958 14.2462C18.9958 13.9325 19.1626 13.6365 19.3961 13.427C19.7537 13.106 19.9827 12.6369 19.9827 12.1144ZM7.99415 13.3589C7.99415 12.6723 8.55197 12.1144 9.23897 12.1144C9.92559 12.1144 10.4835 12.6722 10.4835 13.3589C10.4835 14.0456 9.92568 14.6037 9.23897 14.6037C8.55206 14.6178 7.99415 14.0456 7.99415 13.3589ZM14.9614 16.6637C14.103 17.5222 12.472 17.5795 12 17.5795C11.5136 17.5795 9.88275 17.5077 9.03843 16.6637C8.9099 16.535 8.9099 16.3346 9.03843 16.2059C9.16725 16.0774 9.3675 16.0774 9.49631 16.2059C10.0401 16.7497 11.1846 16.9355 12 16.9355C12.8154 16.9355 13.9742 16.7496 14.5035 16.2059C14.6323 16.0774 14.8326 16.0774 14.9614 16.2059C15.0757 16.3346 15.0757 16.535 14.9614 16.6637ZM14.7323 14.6179C14.0456 14.6179 13.4878 14.0601 13.4878 13.3734C13.4878 12.6866 14.0456 12.1288 14.7323 12.1288C15.4192 12.1288 15.9771 12.6866 15.9771 13.3734C15.9771 14.0456 15.4192 14.6179 14.7323 14.6179Z" fill="white"/>
</svg>
