<svg width="26" height="24" id="ribbon-icon" viewBox="0 0 26 24" xmlns="http://www.w3.org/2000/svg">
    <path startOffset="50%" fill-rule="evenodd" clip-rule="evenodd" d="M12.5433 1.744C10.609 1.744 8.75387 2.51241 7.38608 3.8802C6.01829 5.24798 5.24988 7.1031 5.24988 9.03744C5.24988 10.9718 6.01829 12.8269 7.38608 14.1947C8.75387 15.5625 10.609 16.3309 12.5433 16.3309C14.4777 16.3309 16.3328 15.5625 17.7006 14.1947C19.0684 12.8269 19.8368 10.9718 19.8368 9.03744C19.8368 7.1031 19.0684 5.24798 17.7006 3.8802C16.3328 2.51241 14.4777 1.744 12.5433 1.744ZM3.49945 9.03744C3.50039 7.716 3.7909 6.41082 4.35054 5.21374C4.91018 4.01665 5.72535 2.95675 6.73869 2.10861C7.75203 1.26047 8.93893 0.644697 10.2159 0.30462C11.4928 -0.0354561 12.8287 -0.0915734 14.1297 0.140217C15.4306 0.372007 16.665 0.886074 17.7459 1.64624C18.8268 2.40642 19.728 3.39422 20.386 4.54015C21.0441 5.68609 21.443 6.96231 21.5548 8.27902C21.6666 9.59572 21.4884 10.9209 21.0329 12.1614L23.7029 14.9247C24.0028 15.2363 24.2525 15.4954 24.4392 15.7112C24.6236 15.9236 24.8127 16.1664 24.9235 16.4488C25.3133 17.4348 25.0005 18.6018 24.0611 19.1759C23.7927 19.3416 23.4847 19.4093 23.2209 19.4537C22.9502 19.5003 22.6071 19.5353 22.2022 19.5785L22.1742 19.5809C21.6385 19.638 21.537 19.6555 21.4682 19.6824C21.3601 19.7247 21.2625 19.7902 21.1825 19.8742C21.1024 19.9583 21.0418 20.0589 21.0049 20.169C20.9746 20.2507 20.957 20.3709 20.9022 20.9205L20.8999 20.9462C20.8579 21.3675 20.8228 21.721 20.7797 21.9988C20.7377 22.2672 20.6746 22.5753 20.5194 22.8448C19.971 23.8041 18.8169 24.1635 17.8156 23.7399C17.5344 23.6208 17.2952 23.4213 17.0921 23.2322C16.8821 23.0385 16.6335 22.7795 16.3336 22.4679L16.3102 22.4446L12.5433 18.4781L8.77174 22.4516L8.75423 22.4691C8.45433 22.7806 8.2046 23.0397 7.99571 23.2334C7.7915 23.4225 7.55227 23.622 7.2722 23.741C6.26862 24.1646 5.11568 23.8052 4.56721 22.846C4.41317 22.5764 4.34899 22.2695 4.30698 21.9988C4.2638 21.7222 4.22879 21.3686 4.18795 20.9485L4.18445 20.9217C4.13077 20.372 4.1121 20.253 4.08292 20.1702C4.046 20.0601 3.98538 19.9595 3.90533 19.8754C3.82528 19.7913 3.72776 19.7258 3.61964 19.6835C3.54963 19.6567 3.4481 19.6392 2.91247 19.582L2.88563 19.5797C2.4807 19.5365 2.13762 19.5003 1.86688 19.4548C1.60315 19.4116 1.29508 19.3428 1.02551 19.1771C0.0872819 18.6029 -0.225461 17.436 0.163134 16.4499C0.275161 16.1675 0.46304 15.9248 0.647419 15.7124C0.834131 15.4965 1.08386 15.2375 1.38493 14.9259L4.05375 12.1625C3.68501 11.162 3.49732 10.1038 3.49945 9.03744ZM4.87412 13.8324L2.66158 16.1232C2.3395 16.4569 2.12245 16.681 1.97074 16.8572C1.9028 16.9284 1.84256 17.0067 1.79103 17.0906C1.68601 17.359 1.79103 17.5854 1.9299 17.6776C1.9404 17.6811 1.99992 17.7009 2.15629 17.7277C2.36634 17.7627 2.65808 17.7943 3.09685 17.8409L3.18437 17.8503C3.58114 17.8911 3.93239 17.9284 4.2463 18.0486C4.9453 18.317 5.47977 18.8772 5.73066 19.5797C5.84269 19.8936 5.8777 20.2484 5.91737 20.6615L5.92671 20.749C5.97105 21.2029 6.00139 21.5063 6.0364 21.7292C6.06674 21.9183 6.09008 21.9789 6.09125 21.9824C6.18461 22.14 6.37598 22.217 6.5872 22.1283C6.5872 22.1283 6.64555 22.0968 6.80426 21.9486C6.97346 21.7922 7.18935 21.5693 7.51026 21.2368L7.5126 21.2344L10.6867 17.8899C9.49476 17.6393 8.36564 17.1508 7.36689 16.4536C6.36814 15.7564 5.52031 14.8649 4.87412 13.8324ZM14.3999 17.8911C15.5922 17.6405 16.7216 17.1518 17.7206 16.4544C18.7195 15.757 19.5675 14.8653 20.2137 13.8324L22.4262 16.1232C22.7483 16.4569 22.9642 16.681 23.1159 16.8572C23.2594 17.0206 23.2921 17.0847 23.2956 17.0906C23.4006 17.359 23.2956 17.5854 23.1579 17.6776C23.1462 17.6811 23.0879 17.7009 22.9315 17.7277C22.7203 17.7627 22.4297 17.7943 21.9898 17.8409L21.9023 17.8503C21.5067 17.8911 21.1543 17.9284 20.8404 18.0486C20.1425 18.317 19.6069 18.8772 19.356 19.5797C19.244 19.8936 19.209 20.2484 19.1693 20.6615L19.1599 20.749C19.1156 21.2029 19.0853 21.5063 19.0502 21.7292C19.0211 21.9183 18.9966 21.9789 18.9966 21.9824C18.9032 22.14 18.7107 22.2182 18.4983 22.1283H18.5006C18.5006 22.1283 18.4423 22.0968 18.2824 21.9486C18.0411 21.7173 17.8057 21.4799 17.5764 21.2368L17.5741 21.2344L14.3999 17.8911ZM12.5445 6.74322C12.4768 6.85991 12.399 6.99761 12.3111 7.15632L12.1967 7.3617L12.1711 7.40838C12.0789 7.57642 11.9272 7.85415 11.6739 8.0467C11.416 8.24275 11.1045 8.31043 10.9236 8.35011L10.8734 8.36061L10.6505 8.41079C10.4451 8.45747 10.2794 8.49481 10.1371 8.53099C10.2293 8.64418 10.3495 8.78655 10.5058 8.96976L10.6575 9.14714L10.6925 9.18681C10.8186 9.33268 11.0228 9.56607 11.1161 9.86948C11.2095 10.1682 11.1768 10.4763 11.157 10.67L11.1512 10.7249L11.1278 10.9617C11.1101 11.1405 11.0941 11.3195 11.08 11.4985C11.2013 11.4449 11.339 11.3819 11.5036 11.306L11.7125 11.2103L11.7591 11.187C11.9272 11.1088 12.2189 10.9722 12.5433 10.9722C12.8689 10.9722 13.1595 11.1088 13.3275 11.1881L13.3742 11.2103L13.5842 11.306C13.7476 11.3819 13.8853 11.446 14.0078 11.4985L13.9588 10.9617L13.9355 10.7249L13.9297 10.67C13.9098 10.4751 13.8783 10.1682 13.9705 9.86948C14.0639 9.56607 14.2681 9.33268 14.3941 9.18681L14.4291 9.14714L14.5808 8.96976C14.7372 8.78655 14.8574 8.64418 14.9507 8.53099C14.8084 8.49598 14.6415 8.45747 14.4373 8.41079L14.2144 8.36061L14.1642 8.34894C13.9822 8.31043 13.6718 8.24275 13.4127 8.04553C13.1595 7.85415 13.0078 7.57642 12.9167 7.40955L12.8899 7.3617L12.7755 7.15632C12.6884 6.99761 12.611 6.85991 12.5433 6.74322M11.3915 5.3032C11.5923 5.04063 11.9575 4.66138 12.5422 4.66138C13.128 4.66138 13.4932 5.04063 13.6939 5.3032C13.8853 5.55293 14.079 5.89951 14.2774 6.25543L14.3031 6.30328L14.4186 6.50983L14.484 6.62652L14.5995 6.65336L14.8212 6.70354L14.8772 6.71521C15.26 6.80273 15.6392 6.88792 15.931 7.00345C16.2542 7.13064 16.6895 7.37687 16.8587 7.9195C17.0244 8.45047 16.8155 8.90091 16.6335 9.19148C16.4643 9.45988 16.2087 9.75862 15.945 10.0655L15.91 10.1064L15.7583 10.2849L15.6626 10.3981L15.6766 10.5556L15.6999 10.7925L15.7046 10.8462C15.7454 11.257 15.7839 11.6537 15.7688 11.9712C15.7548 12.3049 15.6754 12.809 15.2226 13.1509C14.7559 13.5057 14.2424 13.4287 13.9157 13.3342C13.6146 13.249 13.2598 13.0844 12.9004 12.9199L12.8502 12.8966L12.6413 12.7997L12.5422 12.7542L12.443 12.8009L12.2352 12.8966L12.1839 12.9199C11.8257 13.0844 11.4697 13.249 11.1687 13.3342C10.8419 13.4275 10.3285 13.5057 9.86167 13.1509C9.41006 12.809 9.33071 12.3049 9.31554 11.9723C9.30153 11.6538 9.33887 11.257 9.37972 10.8462L9.38555 10.7925L9.40889 10.5556L9.4229 10.3981L9.32604 10.2849L9.17434 10.1064L9.13933 10.0655C8.87676 9.75862 8.62003 9.45871 8.45082 9.19031C8.26878 8.90091 8.06106 8.45047 8.2256 7.91834C8.39481 7.37804 8.83125 7.13064 9.15333 7.00345C9.44507 6.88792 9.82549 6.80273 10.2083 6.71638L10.2619 6.70471L10.4848 6.65336L10.6015 6.62652L10.6669 6.50983L10.7812 6.30328L10.8081 6.25543C11.0064 5.89951 11.199 5.55293 11.3915 5.3032Z" fill="black"/>
</svg>
